<?xml version="1.0" encoding="UTF-8" standalone="no"?>
<svg
   xmlns:dc="http://purl.org/dc/elements/1.1/"
   xmlns:cc="http://creativecommons.org/ns#"
   xmlns:rdf="http://www.w3.org/1999/02/22-rdf-syntax-ns#"
   xmlns:svg="http://www.w3.org/2000/svg"
   xmlns="http://www.w3.org/2000/svg"
   xmlns:sodipodi="http://sodipodi.sourceforge.net/DTD/sodipodi-0.dtd"
   xmlns:inkscape="http://www.inkscape.org/namespaces/inkscape"
   width="24"
   height="24"
   viewBox="0 0 24 24"
   version="1.1"
   id="svg18"
   sodipodi:docname="shopping-cart--alt.svg"
   inkscape:version="0.92.1 r15371">
  <metadata
     id="metadata24">
    <rdf:RDF>
      <cc:Work
         rdf:about="">
        <dc:format>image/svg+xml</dc:format>
        <dc:type
           rdf:resource="http://purl.org/dc/dcmitype/StillImage" />
        <dc:title></dc:title>
      </cc:Work>
    </rdf:RDF>
  </metadata>
  <defs
     id="defs22" />
  <sodipodi:namedview
     pagecolor="#ffffff"
     bordercolor="#666666"
     borderopacity="1"
     objecttolerance="10"
     gridtolerance="10"
     guidetolerance="10"
     inkscape:pageopacity="0"
     inkscape:pageshadow="2"
     inkscape:window-width="1170"
     inkscape:window-height="831"
     id="namedview20"
     showgrid="false"
     inkscape:zoom="9.8333333"
     inkscape:cx="12"
     inkscape:cy="12"
     inkscape:window-x="0"
     inkscape:window-y="0"
     inkscape:window-maximized="0"
     inkscape:current-layer="svg18" />
  <g
     fill="#313233"
     transform="translate(0 1)"
     id="g16"
     style="fill:#fff;fill-opacity:1">
    <path
       d="M20.6842105,13 L4.10526316,13 C3.44210526,13 3,12.5272727 3,11.8181818 L3,1.18181818 C3,0.472727273 3.44210526,0 4.10526316,0 L22.8947368,0 C23.2263158,0 23.5578947,0.118181818 23.7789474,0.472727273 C24,0.709090909 24,1.06363636 24,1.41818182 L21.7894737,12.0545455 C21.6789474,12.6454545 21.2368421,13 20.6842105,13 Z M5.21052632,10.6363636 L19.8,10.6363636 L21.5684211,2.36363636 L5.21052632,2.36363636 L5.21052632,10.6363636 Z"
       id="path2"
       style="fill:#fff;fill-opacity:1" />
    <path
       d="M4,2 L1,2 C0.4,2 0,1.6 0,1 C0,0.4 0.4,0 1,0 L4,0 C4.6,0 5,0.4 5,1 C5,1.6 4.6,2 4,2 Z"
       id="path4"
       style="fill:#fff;fill-opacity:1" />
    <path
       d="M4,2 C3.7,2 3.5,1.9 3.3,1.7 C3.1,1.5 3,1.3 3,1 C3,0.7 3.1,0.5 3.3,0.3 C3.7,-0.1 4.3,-0.1 4.7,0.3 C4.9,0.5 5,0.7 5,1 C5,1.3 4.9,1.5 4.7,1.7 C4.5,1.9 4.3,2 4,2 Z"
       id="path6"
       style="fill:#fff;fill-opacity:1" />
    <circle
       cx="6"
       cy="20"
       r="2"
       id="circle8"
       style="fill:#fff;fill-opacity:1" />
    <circle
       cx="19"
       cy="20"
       r="2"
       id="circle10"
       style="fill:#fff;fill-opacity:1" />
    <path
       d="M4,17 C3.4,17 3,16.4666667 3,15.6666667 L3,10.3333333 C3,9.53333333 3.4,9 4,9 C4.6,9 5,9.53333333 5,10.3333333 L5,15.6666667 C5,16.4666667 4.6,17 4,17 Z"
       id="path12"
       style="fill:#fff;fill-opacity:1" />
    <path
       d="M20.8823529,17 L4.11764706,17 C3.44705882,17 3,16.6 3,16 C3,15.4 3.44705882,15 4.11764706,15 L20.8823529,15 C21.5529412,15 22,15.4 22,16 C22,16.6 21.5529412,17 20.8823529,17 Z"
       id="path14"
       style="fill:#fff;fill-opacity:1" />
  </g>
</svg>
