<?xml version="1.0" encoding="UTF-8" standalone="no"?>
<svg
   xmlns:dc="http://purl.org/dc/elements/1.1/"
   xmlns:cc="http://creativecommons.org/ns#"
   xmlns:rdf="http://www.w3.org/1999/02/22-rdf-syntax-ns#"
   xmlns:svg="http://www.w3.org/2000/svg"
   xmlns="http://www.w3.org/2000/svg"
   xmlns:sodipodi="http://sodipodi.sourceforge.net/DTD/sodipodi-0.dtd"
   xmlns:inkscape="http://www.inkscape.org/namespaces/inkscape"
   width="24"
   height="24"
   viewBox="0 0 24 24"
   version="1.1"
   id="svg8"
   sodipodi:docname="user--alt.svg"
   inkscape:version="0.92.1 r15371">
  <metadata
     id="metadata14">
    <rdf:RDF>
      <cc:Work
         rdf:about="">
        <dc:format>image/svg+xml</dc:format>
        <dc:type
           rdf:resource="http://purl.org/dc/dcmitype/StillImage" />
        <dc:title></dc:title>
      </cc:Work>
    </rdf:RDF>
  </metadata>
  <defs
     id="defs12" />
  <sodipodi:namedview
     pagecolor="#ffffff"
     bordercolor="#666666"
     borderopacity="1"
     objecttolerance="10"
     gridtolerance="10"
     guidetolerance="10"
     inkscape:pageopacity="0"
     inkscape:pageshadow="2"
     inkscape:window-width="1728"
     inkscape:window-height="885"
     id="namedview10"
     showgrid="false"
     inkscape:zoom="9.8333333"
     inkscape:cx="12"
     inkscape:cy="12"
     inkscape:window-x="747"
     inkscape:window-y="398"
     inkscape:window-maximized="0"
     inkscape:current-layer="svg8" />
  <g
     fill="none"
     fill-rule="evenodd"
     stroke="#313233"
     stroke-width="2"
     stroke-linejoin="round"
     id="g6"
     style="stroke:#cccecf;stroke-opacity:1">
    <path
       d="M10,15 C10,15 8.5,14.5 8.5,12 C7.674,12 7.674,10 8.5,10 C8.5,9.665 7,6 9.5,6.5 C10,4.5 15.5,4.5 16,6.5 C16.347,7.888 15.5,9.754 15.5,10 C16.326,10 16.326,12 15.5,12 C15.5,14.5 14,15 14,15 L14,17.5 C16.477,18.429 18.93,19.197 20.186,20.075 C22.234,17.999 23.5,15.147 23.5,12 C23.5,5.648 18.352,0.5 12,0.5 C5.648,0.5 0.5,5.648 0.5,12 C0.5,15.153 1.77,18.009 3.825,20.087 C5.155,19.167 7.777,18.341 10,17.5 L10,15 Z"
       id="path2"
       style="stroke:#cccecf;stroke-opacity:1" />
    <path
       d="M3.8252,20.0869 C5.9102,22.1939 8.8022,23.4999 12.0002,23.4999 C15.2032,23.4999 18.0992,22.1899 20.1852,20.0749"
       id="path4"
       style="stroke:#cccecf;stroke-opacity:1" />
  </g>
</svg>
